<?xml version="1.0" encoding="UTF-8" standalone="no"?>
<!-- Created with Inkscape (http://www.inkscape.org/) -->
<svg xmlns:dc="http://purl.org/dc/elements/1.1/" xmlns:cc="http://creativecommons.org/ns#" xmlns:rdf="http://www.w3.org/1999/02/22-rdf-syntax-ns#" xmlns:svg="http://www.w3.org/2000/svg" xmlns="http://www.w3.org/2000/svg" xmlns:sodipodi="http://sodipodi.sourceforge.net/DTD/sodipodi-0.dtd" xmlns:inkscape="http://www.inkscape.org/namespaces/inkscape" width="611.90985" height="261.65076" id="svg3357" version="1.1" inkscape:version="0.48.3.1 r9886" sodipodi:docname="New document 3">
  <defs id="defs3359"/>
  <sodipodi:namedview id="base" pagecolor="#ffffff" bordercolor="#666666" borderopacity="1.0" inkscape:pageopacity="0.0" inkscape:pageshadow="2" inkscape:zoom="0.7" inkscape:cx="321.62155" inkscape:cy="-25.714297" inkscape:document-units="px" inkscape:current-layer="layer1" showgrid="false" fit-margin-top="0" fit-margin-left="0" fit-margin-right="0" fit-margin-bottom="0" inkscape:window-width="771" inkscape:window-height="695" inkscape:window-x="0" inkscape:window-y="477" inkscape:window-maximized="0"/>
  <metadata id="metadata3362">
    <rdf:RDF>
      <cc:Work rdf:about="">
        <dc:format>image/svg+xml</dc:format>
        <dc:type rdf:resource="http://purl.org/dc/dcmitype/StillImage"/>
        <dc:title/>
      </cc:Work>
    </rdf:RDF>
  </metadata>
  <g inkscape:label="Layer 1" inkscape:groupmode="layer" id="layer1" transform="translate(-69.045083,-401.53681)">
    <g id="g174" transform="matrix(5.3051007,0,0,-5.3051007,222.86329,495.55122)">
      <path inkscape:connector-curvature="0" d="m 0,0 c 0,1.538 -0.028,1.818 -1.86,2.083 l 0,0.21 4.812,0 0,-0.21 C 1.273,1.86 1.23,1.44 1.23,0 l 0,-5.006 C 1.245,-7.719 0.924,-8.321 -2.112,-9.62 l -0.111,0.238 C -0.168,-8.418 0,-6.908 0,-4.392 L 0,0 z" style="fill:#231f20;fill-opacity:1;fill-rule:nonzero;stroke:none" id="path176"/>
    </g>
    <g id="g178" transform="matrix(5.3051007,0,0,-5.3051007,250.93415,512.68665)">
      <path inkscape:connector-curvature="0" d="m 0,0 c -0.238,-0.7 -0.855,-2.155 -0.855,-2.825 0,-0.853 0.966,-0.853 1.596,-0.951 l 0,-0.21 -3.832,0 0,0.21 c 1.245,0.336 1.37,0.615 1.804,1.707 l 1.579,4.124 0.84,2.28 C 1.258,4.699 1.439,5.034 1.286,5.299 1.664,5.454 2.012,5.704 2.307,6.054 L 5.383,-2.139 C 5.76,-3.161 5.999,-3.566 7.117,-3.776 l 0,-0.21 -4.111,0 0,0.21 c 0.49,0.112 1.077,0.266 1.077,0.895 0,0.587 -0.532,1.902 -0.895,2.881 L 0,0 z m 1.552,4.279 -1.315,-3.636 2.769,0 -1.454,3.636 z" style="fill:#231f20;fill-opacity:1;fill-rule:nonzero;stroke:none" id="path180"/>
    </g>
    <g id="g182" transform="matrix(5.3051007,0,0,-5.3051007,324.59017,522.99976)">
      <path inkscape:connector-curvature="0" d="m 0,0 2.531,5.566 c 0.35,0.767 0.545,1.468 0.237,1.677 l 0.03,0.224 3.074,0 0,-0.21 C 4.978,7.076 4.433,6.74 4.489,5.761 L 4.796,0.671 C 4.95,-1.272 4.95,-1.581 6.445,-1.833 l 0,-0.209 -4.599,0 0,0.209 c 1.077,0.169 1.761,0.295 1.692,1.525 l -0.378,6.111 -0.027,0 -3.565,-7.845 -0.154,0 -3.315,7.523 -0.027,0 C -4.152,3.342 -4.264,1.79 -4.362,-0.376 -4.389,-0.922 -4.376,-1.552 -2.684,-1.833 l 0,-0.209 -3.9,0 0,0.209 c 1.245,0.211 1.369,0.813 1.566,1.944 l 0.517,3.93 0.182,1.902 c 0.084,0.923 -0.714,1.245 -1.538,1.314 l 0,0.21 3.02,0 0.013,-0.154 C -3.132,6.992 -2.755,6.153 -2.656,5.929 L 0,0 z" style="fill:#231f20;fill-opacity:1;fill-rule:nonzero;stroke:none" id="path184"/>
    </g>
    <g id="g186" transform="matrix(5.3051007,0,0,-5.3051007,361.84203,532.72138)">
      <path inkscape:connector-curvature="0" d="m 0,0 c 1.678,0.225 1.692,0.645 1.732,2.084 l 0,4.923 C 1.692,8.447 1.678,8.867 0,9.089 L 0,9.3 7.508,9.3 7.34,7.147 l -0.209,0 C 7.032,8.95 5.732,8.965 4.321,8.965 l -1.357,0 0,-3.985 1.453,0 c 1.049,0 1.847,0.083 2,1.285 l 0.21,0 0,-3.118 -0.21,0 c -0.182,1.23 -0.951,1.246 -2,1.246 l -1.453,0 0,-2.294 c 0,-0.825 -0.196,-1.972 2.097,-1.972 1.762,0 2.629,0.67 2.978,2.433 l 0.209,0 C 8.235,1.497 8.054,0.63 7.774,-0.209 L 0,-0.209 0,0 z" style="fill:#231f20;fill-opacity:1;fill-rule:nonzero;stroke:none" id="path188"/>
    </g>
    <g id="g190" transform="matrix(5.3051007,0,0,-5.3051007,439.58408,496.44188)">
      <path inkscape:connector-curvature="0" d="m 0,0 -0.223,0 c -0.224,1.133 -0.587,2.224 -1.971,2.224 -0.897,0 -1.637,-0.616 -1.637,-1.539 0,-2.418 4.404,-2.335 4.404,-5.16 0,-1.803 -1.79,-2.741 -3.397,-2.741 -0.855,0 -1.749,0.252 -2.46,0.714 l -0.407,2.377 0.251,0 c 0.349,-1.343 1.287,-2.671 2.825,-2.671 1.033,0 1.847,0.615 1.847,1.705 0,2.49 -4.279,2.266 -4.279,5.063 0,1.636 1.622,2.67 3.117,2.67 0.713,0 1.427,-0.209 2.043,-0.544 L 0,0 z" style="fill:#231f20;fill-opacity:1;fill-rule:nonzero;stroke:none" id="path192"/>
    </g>
    <g id="g194" transform="matrix(5.3051007,0,0,-5.3051007,505.24846,498.66735)">
      <path inkscape:connector-curvature="0" d="m 0,0 -0.21,0 c -0.266,1.58 -1.19,2.712 -2.866,2.712 -2.56,0 -4.001,-2.096 -4.001,-4.502 0,-2.756 2.111,-4.67 4.141,-4.67 1.829,0 2.557,1.342 3.186,2.852 l 0.198,-0.084 c -0.17,-0.854 -0.435,-1.692 -0.771,-2.503 -0.894,-0.433 -1.859,-0.601 -2.853,-0.601 -2.923,0 -5.523,1.678 -5.523,4.838 0,2.489 1.944,5.007 5.636,5.007 C -2,3.049 -0.924,2.838 0,2.293 L 0,0 z" style="fill:#231f20;fill-opacity:1;fill-rule:nonzero;stroke:none" id="path196"/>
    </g>
    <g id="g198" transform="matrix(5.3051007,0,0,-5.3051007,565.78925,508.61076)">
      <path inkscape:connector-curvature="0" d="m 0,0 c 0,-3.006 -2.181,-4.921 -5.118,-4.921 -2.95,0 -5.119,1.915 -5.119,4.935 0,2.979 2.183,4.909 5.105,4.909 C -1.551,4.923 0,2.49 0,0 m -8.614,0.35 c 0,-2.167 1.147,-4.936 3.664,-4.936 2.306,0 3.329,2.35 3.329,4.348 -0.043,2.477 -1.483,4.825 -3.623,4.825 -2.406,0 -3.37,-2.348 -3.37,-4.237" style="fill:#231f20;fill-opacity:1;fill-rule:nonzero;stroke:none" id="path200"/>
    </g>
    <g id="g202" transform="matrix(5.3051007,0,0,-5.3051007,625.36659,508.61076)">
      <path inkscape:connector-curvature="0" d="m 0,0 c 0,-3.006 -2.181,-4.921 -5.117,-4.921 -2.951,0 -5.119,1.915 -5.119,4.935 0,2.979 2.182,4.909 5.105,4.909 C -1.551,4.923 0,2.49 0,0 m -8.614,0.35 c 0,-2.167 1.147,-4.936 3.664,-4.936 2.309,0 3.329,2.35 3.329,4.348 -0.043,2.477 -1.483,4.825 -3.623,4.825 -2.403,0 -3.37,-2.348 -3.37,-4.237" style="fill:#231f20;fill-opacity:1;fill-rule:nonzero;stroke:none" id="path204"/>
    </g>
    <g id="g206" transform="matrix(5.3051007,0,0,-5.3051007,642.4558,521.665)">
      <path inkscape:connector-curvature="0" d="m 0,0 c 0.042,-1.44 0.055,-1.86 1.86,-2.084 l 0,-0.209 -4.826,0 0,0.209 c 1.68,0.224 1.693,0.644 1.734,2.084 l 0,4.922 c -0.041,1.441 -0.054,1.861 -1.734,2.083 l 0,0.211 4.447,0 0,-0.211 C 0.055,6.783 0.042,6.363 0,4.922 L 0,0 z m 6.32,7.216 0,-0.211 C 4.726,6.838 3.664,5.481 2.628,4.405 L 1.314,3.006 4.153,-0.125 C 5.006,-1.063 6.014,-1.901 7.257,-2.25 l -0.07,-0.211 c -2.433,0.196 -2.824,0.266 -4.14,1.706 L 0.195,2.35 2.447,4.796 c 1.468,1.65 1.188,2.112 0.25,2.209 l 0,0.211 3.623,0 z" style="fill:#231f20;fill-opacity:1;fill-rule:nonzero;stroke:none" id="path208"/>
    </g>
    <g id="g210" transform="matrix(5.3051007,0,0,-5.3051007,270.93544,553.01127)">
      <path inkscape:connector-curvature="0" d="m 0,0 0,-0.209 c -1.273,-0.14 -1.357,-0.924 -1.411,-2.769 L -1.497,-6.04 c -0.041,-1.806 -0.81,-3.636 -3.914,-3.636 -4.334,0 -3.887,3.132 -3.887,4.25 l 0,3.132 c -0.043,1.442 -0.057,1.86 -1.735,2.085 l 0,0.209 4.825,0 0,-0.209 c -1.833,-0.266 -1.86,-0.546 -1.86,-2.085 l 0,-2.866 c 0,-0.266 -0.448,-3.874 3.383,-3.874 3.021,0 2.728,2.881 2.728,4.588 l 0,1.468 c 0,1.776 -0.14,2.585 -2.098,2.769 L -4.055,0 0,0 z" style="fill:#231f20;fill-opacity:1;fill-rule:nonzero;stroke:none" id="path212"/>
    </g>
    <g id="g214" transform="matrix(5.3051007,0,0,-5.3051007,322.55462,591.80959)">
      <path inkscape:connector-curvature="0" d="m 0,0 -0.07,5.104 c -0.014,1.329 -0.377,1.721 -1.957,2 l 0,0.209 3.815,0 0,-0.209 C 0.824,6.978 0.643,6.446 0.531,5.537 0.335,4 0.405,0.629 0.475,-2.419 L 0.294,-2.462 c -2.238,2.642 -4.726,5.091 -7.09,7.637 l 0,-2.575 c 0,-3.467 -0.083,-4.18 1.944,-4.585 l 0,-0.212 -4.18,0 0,0.212 c 1.888,0.194 1.817,1.482 1.817,4.655 l 0,2.098 c 0,1.399 -0.224,1.945 -1.999,2.336 l 0,0.209 2.307,0 L 0,0 z" style="fill:#231f20;fill-opacity:1;fill-rule:nonzero;stroke:none" id="path216"/>
    </g>
    <g id="g218" transform="matrix(5.3051007,0,0,-5.3051007,350.93475,591.29551)">
      <path inkscape:connector-curvature="0" d="m 0,0 c 0.042,-1.439 0.057,-1.859 1.734,-2.083 l 0,-0.211 -4.697,0 0,0.211 c 1.676,0.224 1.692,0.644 1.733,2.083 l 0,4.923 c -0.041,1.441 -0.057,1.86 -1.733,2.084 l 0,0.209 4.697,0 0,-0.209 C 0.057,6.783 0.042,6.364 0,4.923 L 0,0 z" style="fill:#231f20;fill-opacity:1;fill-rule:nonzero;stroke:none" id="path220"/>
    </g>
    <g id="g222" transform="matrix(5.3051007,0,0,-5.3051007,417.47824,553.01127)">
      <path inkscape:connector-curvature="0" d="m 0,0 0,-0.209 c -1.315,-0.113 -1.72,-1.217 -2.587,-3.245 l -2.672,-6.376 -0.195,0 -3.159,7.564 c -0.421,1.022 -0.742,1.917 -1.986,2.057 l 0,0.209 4.432,0 0,-0.209 c -1.972,-0.196 -1.329,-1.315 -0.965,-2.197 l 2.236,-5.397 1.652,3.957 c 1.201,2.868 1.425,3.329 -0.699,3.637 L -3.943,0 0,0 z" style="fill:#231f20;fill-opacity:1;fill-rule:nonzero;stroke:none" id="path224"/>
    </g>
    <g id="g226" transform="matrix(5.3051007,0,0,-5.3051007,418.14511,602.34073)">
      <path inkscape:connector-curvature="0" d="m 0,0 c 1.68,0.223 1.693,0.643 1.734,2.082 l 0,4.923 C 1.693,8.446 1.68,8.865 0,9.089 l 0,0.21 7.51,0 -0.167,-2.154 -0.21,0 C 7.034,8.95 5.733,8.963 4.321,8.963 l -1.355,0 0,-3.985 1.454,0 c 1.047,0 1.846,0.083 1.999,1.286 l 0.211,0 0,-3.119 -0.211,0 C 6.237,4.376 5.467,4.389 4.42,4.389 l -1.454,0 0,-2.293 c 0,-0.824 -0.196,-1.971 2.098,-1.971 1.76,0 2.628,0.671 2.977,2.433 l 0.21,0 C 8.237,1.495 8.055,0.629 7.776,-0.212 L 0,-0.212 0,0 z" style="fill:#231f20;fill-opacity:1;fill-rule:nonzero;stroke:none" id="path228"/>
    </g>
    <g id="g230" transform="matrix(5.3051007,0,0,-5.3051007,473.99781,568.28992)">
      <path inkscape:connector-curvature="0" d="m 0,0 c 0,2.139 -0.07,2.46 -1.636,2.601 l 0,0.195 3.412,0.112 C 5.3,3.02 5.579,1.3 5.579,0.629 5.579,-0.546 4.852,-1.217 3.846,-1.666 L 3.915,-1.763 C 4.992,-3.65 6.334,-6.056 8.643,-6.532 L 8.6,-6.74 c -1.483,0.07 -2.573,0.026 -3.384,0.866 -0.923,0.965 -1.65,2.195 -1.943,2.798 -0.56,1.159 -1.063,0.823 -2.042,0.992 l 0,-2.253 c 0,-1.537 0.027,-1.816 1.943,-2.082 l 0,-0.211 -4.908,0 0,0.211 c 1.678,0.223 1.691,0.643 1.734,2.082 L 0,0 z m 1.231,-1.847 c 1.342,0.014 2.909,0.63 2.909,2.181 0,1.638 -1.441,2.295 -2.909,2.281 l 0,-4.462 z" style="fill:#231f20;fill-opacity:1;fill-rule:nonzero;stroke:none" id="path232"/>
    </g>
    <g id="g234" transform="matrix(5.3051007,0,0,-5.3051007,547.91853,566.06865)">
      <path inkscape:connector-curvature="0" d="m 0,0 -0.223,0 c -0.224,1.134 -0.588,2.224 -1.972,2.224 -0.895,0 -1.635,-0.615 -1.635,-1.539 0,-2.419 4.403,-2.334 4.403,-5.161 0,-1.802 -1.79,-2.739 -3.397,-2.739 -0.853,0 -1.749,0.251 -2.463,0.714 l -0.403,2.375 0.25,0 c 0.351,-1.342 1.287,-2.67 2.826,-2.67 1.034,0 1.844,0.614 1.844,1.705 0,2.489 -4.277,2.266 -4.277,5.063 0,1.637 1.621,2.67 3.116,2.67 0.714,0 1.428,-0.208 2.044,-0.545 L 0,0 z" style="fill:#231f20;fill-opacity:1;fill-rule:nonzero;stroke:none" id="path236"/>
    </g>
    <g id="g238" transform="matrix(5.3051007,0,0,-5.3051007,569.61159,591.29551)">
      <path inkscape:connector-curvature="0" d="m 0,0 c 0.042,-1.439 0.057,-1.859 1.734,-2.083 l 0,-0.211 -4.7,0 0,0.211 c 1.68,0.224 1.694,0.644 1.736,2.083 l 0,4.923 c -0.042,1.441 -0.056,1.86 -1.736,2.084 l 0,0.209 4.7,0 0,-0.209 C 0.057,6.783 0.042,6.364 0,4.923 L 0,0 z" style="fill:#231f20;fill-opacity:1;fill-rule:nonzero;stroke:none" id="path240"/>
    </g>
    <g id="g242" transform="matrix(5.3051007,0,0,-5.3051007,627.80184,550.71361)">
      <path inkscape:connector-curvature="0" d="M 0,0 0.111,0 0.307,-2.615 0.111,-2.657 c -0.489,1.735 -1.257,1.804 -2.866,1.804 l -0.841,0 0,-6.461 c 0,-1.732 0.085,-2.195 1.96,-2.418 l 0,-0.212 -5.146,0 0,0.212 c 1.873,0.223 1.956,0.686 1.956,2.418 l 0,6.461 -0.837,0 c -1.61,0 -2.379,-0.069 -2.869,-1.804 l -0.194,0.042 0.194,2.615 0.113,0 0.14,-0.126 c 0.35,-0.321 0.407,-0.307 0.867,-0.307 l 6.406,0 c 0.46,0 0.516,-0.014 0.866,0.307 L 0,0 z" style="fill:#231f20;fill-opacity:1;fill-rule:nonzero;stroke:none" id="path244"/>
    </g>
    <g id="g246" transform="matrix(5.3051007,0,0,-5.3051007,678.41081,553.01127)">
      <path inkscape:connector-curvature="0" d="m 0,0 0,-0.209 c -1.217,-0.099 -1.817,-0.769 -2.405,-1.777 l -1.65,-3.271 0,-1.583 C -4.027,-8.446 -4,-9.02 -2.21,-9.299 l 0,-0.211 -4.923,0 0,0.211 c 1.791,0.279 1.82,0.853 1.846,2.459 l 0,1.121 -1.453,3.173 c -0.532,1.175 -0.909,2.169 -2.322,2.337 l 0,0.209 3.86,0 0,-0.209 c -1.147,-0.155 -0.993,-0.616 -0.544,-1.595 l 1.396,-3.02 1.217,2.307 c 0.867,1.622 0.755,2.153 -0.46,2.308 L -3.593,0 0,0 z" style="fill:#231f20;fill-opacity:1;fill-rule:nonzero;stroke:none" id="path248"/>
    </g>
    <path inkscape:connector-curvature="0" d="m 221.28768,618.09476 452.42429,0 0,1.51195 -452.42429,0 0,-1.51195 z" style="fill:#231f20;fill-opacity:1;fill-rule:nonzero;stroke:none" id="path250"/>
    <g id="g252" transform="matrix(5.3051007,0,0,-5.3051007,228.93925,634.97554)">
      <path inkscape:connector-curvature="0" d="m 0,0 0.845,0 2.287,-5.236 -0.964,0 -0.527,1.256 -2.459,0 -0.534,-1.256 -0.935,0 L 0,0 z m 1.306,-3.172 -0.898,2.08 -0.891,-2.08 1.789,0 z" style="fill:#231f20;fill-opacity:1;fill-rule:nonzero;stroke:none" id="path254"/>
    </g>
    <g id="g256" transform="matrix(5.3051007,0,0,-5.3051007,249.66097,651.04418)">
      <path inkscape:connector-curvature="0" d="m 0,0 0,2.991 0.913,0 0,-2.955 c 0,-0.965 0.498,-1.485 1.314,-1.485 0.81,0 1.307,0.49 1.307,1.449 l 0,2.991 0.913,0 0,-2.946 C 4.447,-1.509 3.571,-2.289 2.212,-2.289 0.861,-2.289 0,-1.509 0,0" style="fill:#231f20;fill-opacity:1;fill-rule:nonzero;stroke:none" id="path258"/>
    </g>
    <g id="g260" transform="matrix(5.3051007,0,0,-5.3051007,278.84861,658.73293)">
      <path inkscape:connector-curvature="0" d="m 0,0 0.55,0.653 c 0.497,-0.428 0.995,-0.675 1.641,-0.675 0.564,0 0.919,0.26 0.919,0.654 l 0,0.015 c 0,0.37 -0.206,0.572 -1.172,0.794 -1.106,0.267 -1.73,0.595 -1.73,1.552 l 0,0.015 c 0,0.892 0.743,1.507 1.775,1.507 0.757,0 1.357,-0.23 1.886,-0.654 L 3.379,3.171 C 2.911,3.52 2.443,3.705 1.967,3.705 1.433,3.705 1.121,3.431 1.121,3.089 l 0,-0.013 C 1.121,2.674 1.359,2.495 2.353,2.258 3.453,1.99 4.024,1.597 4.024,0.736 l 0,-0.016 C 4.024,-0.253 3.259,-0.83 2.168,-0.83 1.374,-0.83 0.624,-0.556 0,0" style="fill:#231f20;fill-opacity:1;fill-rule:nonzero;stroke:none" id="path262"/>
    </g>
    <g id="g264" transform="matrix(5.3051007,0,0,-5.3051007,312.88661,639.66423)">
      <path inkscape:connector-curvature="0" d="m 0,0 -1.649,0 0,0.846 4.218,0 0,-0.846 -1.648,0 0,-4.352 L 0,-4.352 0,0 z" style="fill:#231f20;fill-opacity:1;fill-rule:nonzero;stroke:none" id="path266"/>
    </g>
    <g id="g268" transform="matrix(5.3051007,0,0,-5.3051007,332.42792,635.17451)">
      <path inkscape:connector-curvature="0" d="m 0,0 2.316,0 c 0.653,0 1.166,-0.194 1.5,-0.519 0.275,-0.285 0.43,-0.67 0.43,-1.121 l 0,-0.016 c 0,-0.853 -0.512,-1.366 -1.239,-1.575 l 1.404,-1.967 -1.077,0 -1.278,1.812 -1.145,0 0,-1.812 L 0,-5.198 0,0 z m 2.249,-2.578 c 0.654,0 1.069,0.344 1.069,0.871 l 0,0.014 c 0,0.557 -0.401,0.862 -1.076,0.862 l -1.331,0 0,-1.747 1.338,0 z" style="fill:#231f20;fill-opacity:1;fill-rule:nonzero;stroke:none" id="path270"/>
    </g>
    <g id="g272" transform="matrix(5.3051007,0,0,-5.3051007,371.4581,634.97554)">
      <path inkscape:connector-curvature="0" d="m 0,0 0.846,0 2.288,-5.236 -0.965,0 -0.528,1.256 -2.457,0 -0.535,-1.256 -0.936,0 L 0,0 z m 1.307,-3.172 -0.898,2.08 -0.891,-2.08 1.789,0 z" style="fill:#231f20;fill-opacity:1;fill-rule:nonzero;stroke:none" id="path274"/>
    </g>
    <g id="g276" transform="matrix(5.3051007,0,0,-5.3051007,393.59633,635.17451)">
      <path inkscape:connector-curvature="0" d="m 0,0 0.915,0 0,-4.365 2.732,0 0,-0.833 L 0,-5.198 0,0 z" style="fill:#231f20;fill-opacity:1;fill-rule:nonzero;stroke:none" id="path278"/>
    </g>
    <path inkscape:connector-curvature="0" d="m 419.05122,635.17187 4.84886,0 0,27.57592 -4.84886,0 0,-27.57592 z" style="fill:#231f20;fill-opacity:1;fill-rule:nonzero;stroke:none" id="path280"/>
    <g id="g282" transform="matrix(5.3051007,0,0,-5.3051007,441.81808,634.97554)">
      <path inkscape:connector-curvature="0" d="m 0,0 0.846,0 2.287,-5.236 -0.964,0 -0.528,1.256 -2.458,0 -0.534,-1.256 -0.935,0 L 0,0 z m 1.307,-3.172 -0.898,2.08 -0.892,-2.08 1.79,0 z" style="fill:#231f20;fill-opacity:1;fill-rule:nonzero;stroke:none" id="path284"/>
    </g>
    <g id="g286" transform="matrix(5.3051007,0,0,-5.3051007,174.49457,525.62634)">
      <path inkscape:connector-curvature="0" d="m 0,0 c -0.696,-0.402 -1.69,-0.652 -2.795,-0.652 -1.106,0 -2.099,0.25 -2.796,0.651 -0.695,0.401 -1.691,0.652 -2.794,0.652 -1.105,0 -2.102,-0.251 -2.796,-0.652 -0.697,-0.401 -1.691,-0.651 -2.796,-0.651 -1.105,0 -2.099,0.25 -2.794,0.651 -0.697,0.401 -1.691,0.652 -2.797,0.652 -0.103,0 -0.205,-0.004 -0.309,-0.008 l 0,-2.587 c 0,-0.392 0.015,-0.769 0.037,-1.14 0.09,0.003 0.181,0.008 0.272,0.008 1.106,0 2.1,-0.251 2.797,-0.653 0.695,-0.401 1.689,-0.651 2.794,-0.651 1.105,0 2.099,0.25 2.796,0.651 0.694,0.402 1.691,0.653 2.796,0.653 1.103,0 2.099,-0.251 2.794,-0.653 0.697,-0.401 1.69,-0.651 2.796,-0.651 1.105,0 2.099,0.25 2.795,0.652 0.696,0.401 1.69,0.652 2.794,0.652 0.094,0 0.183,-0.005 0.274,-0.008 0.022,0.371 0.035,0.748 0.035,1.14 l 0,2.587 C 3.002,0.647 2.9,0.651 2.794,0.651 1.69,0.651 0.696,0.4 0,0" style="fill:#176fc1;fill-opacity:1;fill-rule:nonzero;stroke:none" id="path288"/>
    </g>
    <g id="g290" transform="matrix(5.3051007,0,0,-5.3051007,159.66787,568.63955)">
      <path inkscape:connector-curvature="0" d="m 0,0 c -1.105,0 -2.101,0.25 -2.796,0.651 -0.696,0.401 -1.691,0.653 -2.795,0.653 -1.104,0 -2.1,-0.252 -2.795,-0.653 C -9.083,0.25 -10.077,0 -11.183,0 c -1.104,-0.001 -2.098,0.25 -2.794,0.651 -0.619,0.357 -1.473,0.594 -2.43,0.641 0.489,-1.639 1.214,-3.016 2.07,-4.19 0.127,-0.057 0.248,-0.114 0.36,-0.179 0.696,-0.401 1.69,-0.652 2.794,-0.652 1.106,0 2.1,0.251 2.797,0.652 0.695,0.401 1.691,0.654 2.795,0.654 1.104,0 2.099,-0.251 2.795,-0.654 0.695,-0.401 1.691,-0.652 2.796,-0.652 1.104,0 2.099,0.251 2.795,0.652 0.112,0.066 0.234,0.123 0.361,0.18 0.856,1.173 1.578,2.55 2.068,4.189 C 4.267,1.245 3.412,1.008 2.795,0.651 2.099,0.25 1.104,0 0,0" style="fill:#176fc1;fill-opacity:1;fill-rule:nonzero;stroke:none" id="path292"/>
    </g>
    <g id="g294" transform="matrix(5.3051007,0,0,-5.3051007,144.8354,604.73706)">
      <path inkscape:connector-curvature="0" d="M 0,0 C -0.696,0.4 -1.691,0.652 -2.795,0.652 -3.899,0.652 -4.895,0.4 -5.59,0 c -0.336,-0.194 -0.74,-0.35 -1.192,-0.462 1.603,-1.072 3.084,-1.859 3.987,-2.613 0.903,0.754 2.384,1.541 3.987,2.613 C 0.74,-0.35 0.335,-0.194 0,0" style="fill:#176fc1;fill-opacity:1;fill-rule:nonzero;stroke:none" id="path296"/>
    </g>
    <g id="g298" transform="matrix(5.3051007,0,0,-5.3051007,174.49457,486.07147)">
      <path inkscape:connector-curvature="0" d="m 0,0 c -0.696,-0.401 -1.69,-0.654 -2.795,-0.654 -1.106,0 -2.099,0.253 -2.796,0.654 -0.695,0.4 -1.691,0.651 -2.794,0.651 -1.105,0 -2.102,-0.251 -2.796,-0.651 -0.697,-0.401 -1.691,-0.654 -2.796,-0.654 -1.105,0 -2.099,0.253 -2.794,0.654 -0.697,0.4 -1.691,0.651 -2.797,0.651 -0.103,0 -0.205,-0.004 -0.309,-0.008 l 0,-3.728 c 0.104,0.004 0.206,0.007 0.309,0.007 1.106,0 2.1,-0.25 2.797,-0.65 0.695,-0.403 1.689,-0.653 2.794,-0.653 1.105,0 2.099,0.25 2.796,0.653 0.694,0.4 1.691,0.65 2.796,0.65 1.103,0 2.099,-0.25 2.794,-0.65 0.697,-0.403 1.69,-0.653 2.796,-0.653 1.105,0 2.099,0.25 2.795,0.653 0.696,0.4 1.69,0.65 2.794,0.65 0.106,0 0.208,-0.003 0.309,-0.008 l 0,3.729 C 3.002,0.647 2.9,0.651 2.794,0.651 1.69,0.651 0.696,0.4 0,0" style="fill:#176fc1;fill-opacity:1;fill-rule:nonzero;stroke:none" id="path300"/>
    </g>
    <g id="g302" transform="matrix(5.3051007,0,0,-5.3051007,130.00973,445.45774)">
      <path inkscape:connector-curvature="0" d="m 0,0 c -2.081,0 -3.767,-1.686 -3.767,-3.767 0,-0.187 0.019,-0.371 0.045,-0.551 0.346,0.105 0.659,0.236 0.926,0.391 0.695,0.399 1.692,0.651 2.796,0.651 1.104,0 2.099,-0.252 2.795,-0.651 0.268,-0.155 0.581,-0.286 0.927,-0.392 0.026,0.181 0.045,0.364 0.045,0.552 C 3.767,-1.686 2.08,0 0,0 M -5.134,-1.106 -5.36,-1.152 c -0.199,-0.034 -0.388,-0.039 -0.578,-0.032 -0.196,0.007 -0.426,0.054 -0.556,0.138 -0.033,-0.196 0.209,-0.455 0.415,-0.594 0.141,-0.096 0.289,-0.179 0.446,-0.231 l 0.185,-0.055 c 0.189,-0.066 0.373,-0.187 0.52,-0.317 0.19,-0.167 0.348,-0.381 0.494,-0.569 0.117,0.55 0.337,1.065 0.636,1.522 -0.198,0.071 -0.413,0.148 -0.648,0.184 -0.207,0.032 -0.453,0.036 -0.688,0 M 8.604,-3.767 4.469,-3.026 c 0.041,-0.241 0.067,-0.489 0.067,-0.741 0,-0.252 -0.026,-0.498 -0.067,-0.74 l 4.135,0.74 z m -13.077,0.741 -4.133,-0.741 4.134,-0.74 c -0.037,0.242 -0.065,0.488 -0.065,0.74 0,0.252 0.028,0.5 0.064,0.741 m 9.984,1.008 0.129,0.192 c 0.114,0.165 0.245,0.301 0.383,0.431 0.144,0.133 0.34,0.265 0.494,0.297 C 6.4,-0.939 6.045,-0.924 5.801,-0.972 5.634,-1.005 5.475,-1.049 5.323,-1.124 L 5.152,-1.217 C 4.973,-1.302 4.757,-1.349 4.559,-1.36 4.309,-1.377 4.045,-1.336 3.809,-1.305 l -0.004,0 c 0.298,-0.46 0.516,-0.973 0.633,-1.527 0.191,0.091 0.394,0.189 0.585,0.328 0.17,0.123 0.347,0.294 0.488,0.486 m -8.092,1.978 -2.6,1.455 1.451,-2.601 c 0.314,0.449 0.701,0.838 1.149,1.146 M 3.729,-1.186 5.18,1.415 2.58,-0.04 C 3.028,-0.348 3.417,-0.737 3.729,-1.186 M 0.763,0.701 0,8.279 -0.764,0.701 c 0.25,0.04 0.502,0.068 0.764,0.068 0.259,0 0.513,-0.028 0.763,-0.068 m -3.406,0.855 0.093,-0.17 c 0.084,-0.18 0.133,-0.395 0.143,-0.59 0.015,-0.254 -0.024,-0.518 -0.054,-0.752 l 0,-0.005 c 0.457,0.298 0.973,0.517 1.525,0.633 -0.09,0.191 -0.187,0.397 -0.327,0.586 -0.124,0.17 -0.296,0.347 -0.485,0.485 L -1.942,1.871 C -2.107,1.988 -2.242,2.118 -2.373,2.256 -2.506,2.4 -2.637,2.597 -2.669,2.751 -2.829,2.633 -2.842,2.279 -2.795,2.034 -2.761,1.865 -2.717,1.707 -2.643,1.556 M 2.661,0.677 c 0.032,0.208 0.036,0.455 0,0.691 L 2.614,1.593 C 2.58,1.792 2.574,1.979 2.58,2.17 2.589,2.365 2.633,2.598 2.721,2.729 2.525,2.759 2.266,2.518 2.127,2.312 2.03,2.168 1.949,2.024 1.896,1.864 L 1.841,1.682 C 1.774,1.493 1.653,1.306 1.524,1.159 1.355,0.972 1.143,0.812 0.952,0.669 L 0.951,0.668 C 1.504,0.548 2.018,0.33 2.477,0.03 2.548,0.23 2.621,0.446 2.661,0.677" style="fill:#e7b20f;fill-opacity:1;fill-rule:nonzero;stroke:none" id="path304"/>
    </g>
  </g>
</svg>